<mxfile host="Electron" modified="2023-11-22T00:22:31.707Z" agent="Mozilla/5.0 (Windows NT 10.0; Win64; x64) AppleWebKit/537.36 (KHTML, like Gecko) draw.io/22.0.2 Chrome/114.0.5735.289 Electron/25.8.4 Safari/537.36" etag="uJvpm18EpM06X6jkIF2D" version="22.0.2" type="device">
  <diagram name="Page-1" id="O8sxU2o_6RIMz94IiLqP">
    <mxGraphModel dx="3156" dy="1827" grid="1" gridSize="10" guides="1" tooltips="1" connect="1" arrows="1" fold="1" page="1" pageScale="1" pageWidth="850" pageHeight="1100" math="0" shadow="0">
      <root>
        <mxCell id="0" />
        <mxCell id="1" parent="0" />
        <mxCell id="679AgeHTdPnnJc1YT7qO-6" style="edgeStyle=orthogonalEdgeStyle;rounded=0;orthogonalLoop=1;jettySize=auto;html=1;" edge="1" parent="1" source="679AgeHTdPnnJc1YT7qO-1" target="679AgeHTdPnnJc1YT7qO-10">
          <mxGeometry relative="1" as="geometry">
            <mxPoint x="267" y="198" as="targetPoint" />
          </mxGeometry>
        </mxCell>
        <mxCell id="679AgeHTdPnnJc1YT7qO-7" value="No(User)" style="edgeLabel;html=1;align=center;verticalAlign=middle;resizable=0;points=[];" vertex="1" connectable="0" parent="679AgeHTdPnnJc1YT7qO-6">
          <mxGeometry x="-0.2324" y="-7" relative="1" as="geometry">
            <mxPoint as="offset" />
          </mxGeometry>
        </mxCell>
        <mxCell id="679AgeHTdPnnJc1YT7qO-95" style="edgeStyle=orthogonalEdgeStyle;rounded=0;orthogonalLoop=1;jettySize=auto;html=1;" edge="1" parent="1" source="679AgeHTdPnnJc1YT7qO-1" target="679AgeHTdPnnJc1YT7qO-54">
          <mxGeometry relative="1" as="geometry" />
        </mxCell>
        <mxCell id="679AgeHTdPnnJc1YT7qO-96" value="YES(Registered User)" style="edgeLabel;html=1;align=center;verticalAlign=middle;resizable=0;points=[];" vertex="1" connectable="0" parent="679AgeHTdPnnJc1YT7qO-95">
          <mxGeometry x="-0.189" y="2" relative="1" as="geometry">
            <mxPoint as="offset" />
          </mxGeometry>
        </mxCell>
        <mxCell id="679AgeHTdPnnJc1YT7qO-1" value="Login?" style="rhombus;whiteSpace=wrap;html=1;rounded=1;" vertex="1" parent="1">
          <mxGeometry x="382" y="88" width="80" height="80" as="geometry" />
        </mxCell>
        <mxCell id="679AgeHTdPnnJc1YT7qO-3" style="edgeStyle=orthogonalEdgeStyle;rounded=0;orthogonalLoop=1;jettySize=auto;html=1;" edge="1" parent="1" source="679AgeHTdPnnJc1YT7qO-2" target="679AgeHTdPnnJc1YT7qO-1">
          <mxGeometry relative="1" as="geometry" />
        </mxCell>
        <mxCell id="679AgeHTdPnnJc1YT7qO-2" value="" style="ellipse;whiteSpace=wrap;html=1;aspect=fixed;fillColor=#000000;" vertex="1" parent="1">
          <mxGeometry x="407" y="30" width="30" height="30" as="geometry" />
        </mxCell>
        <mxCell id="679AgeHTdPnnJc1YT7qO-14" style="edgeStyle=orthogonalEdgeStyle;rounded=0;orthogonalLoop=1;jettySize=auto;html=1;" edge="1" parent="1" source="679AgeHTdPnnJc1YT7qO-10" target="679AgeHTdPnnJc1YT7qO-13">
          <mxGeometry relative="1" as="geometry">
            <mxPoint x="267" y="338" as="targetPoint" />
          </mxGeometry>
        </mxCell>
        <mxCell id="679AgeHTdPnnJc1YT7qO-21" value="YES" style="edgeLabel;html=1;align=center;verticalAlign=middle;resizable=0;points=[];" vertex="1" connectable="0" parent="679AgeHTdPnnJc1YT7qO-14">
          <mxGeometry x="-0.16" y="9" relative="1" as="geometry">
            <mxPoint x="9" y="-8" as="offset" />
          </mxGeometry>
        </mxCell>
        <mxCell id="679AgeHTdPnnJc1YT7qO-19" style="edgeStyle=orthogonalEdgeStyle;rounded=0;orthogonalLoop=1;jettySize=auto;html=1;entryX=-0.24;entryY=0.606;entryDx=0;entryDy=0;entryPerimeter=0;" edge="1" parent="1" source="679AgeHTdPnnJc1YT7qO-10" target="679AgeHTdPnnJc1YT7qO-15">
          <mxGeometry relative="1" as="geometry">
            <mxPoint x="407" y="1070" as="targetPoint" />
            <Array as="points">
              <mxPoint x="128" y="218" />
              <mxPoint x="128" y="655" />
              <mxPoint x="127" y="655" />
              <mxPoint x="127" y="1080" />
              <mxPoint x="407" y="1080" />
            </Array>
          </mxGeometry>
        </mxCell>
        <mxCell id="679AgeHTdPnnJc1YT7qO-20" value="NO" style="edgeLabel;html=1;align=center;verticalAlign=middle;resizable=0;points=[];" vertex="1" connectable="0" parent="679AgeHTdPnnJc1YT7qO-19">
          <mxGeometry x="-0.8681" y="3" relative="1" as="geometry">
            <mxPoint x="38" y="-3" as="offset" />
          </mxGeometry>
        </mxCell>
        <mxCell id="679AgeHTdPnnJc1YT7qO-10" value="Select Flight" style="rhombus;whiteSpace=wrap;html=1;rounded=1;" vertex="1" parent="1">
          <mxGeometry x="227" y="178" width="80" height="80" as="geometry" />
        </mxCell>
        <mxCell id="679AgeHTdPnnJc1YT7qO-26" style="edgeStyle=orthogonalEdgeStyle;rounded=0;orthogonalLoop=1;jettySize=auto;html=1;" edge="1" parent="1" source="679AgeHTdPnnJc1YT7qO-13" target="679AgeHTdPnnJc1YT7qO-49">
          <mxGeometry relative="1" as="geometry">
            <mxPoint x="267" y="480" as="targetPoint" />
          </mxGeometry>
        </mxCell>
        <mxCell id="679AgeHTdPnnJc1YT7qO-29" value="YES" style="edgeLabel;html=1;align=center;verticalAlign=middle;resizable=0;points=[];" vertex="1" connectable="0" parent="679AgeHTdPnnJc1YT7qO-26">
          <mxGeometry x="-0.403" relative="1" as="geometry">
            <mxPoint as="offset" />
          </mxGeometry>
        </mxCell>
        <mxCell id="679AgeHTdPnnJc1YT7qO-71" style="edgeStyle=orthogonalEdgeStyle;rounded=0;orthogonalLoop=1;jettySize=auto;html=1;endArrow=none;endFill=0;" edge="1" parent="1" source="679AgeHTdPnnJc1YT7qO-13">
          <mxGeometry relative="1" as="geometry">
            <mxPoint x="127" y="330" as="targetPoint" />
          </mxGeometry>
        </mxCell>
        <mxCell id="679AgeHTdPnnJc1YT7qO-72" value="NO" style="edgeLabel;html=1;align=center;verticalAlign=middle;resizable=0;points=[];" vertex="1" connectable="0" parent="679AgeHTdPnnJc1YT7qO-71">
          <mxGeometry x="-0.0822" y="2" relative="1" as="geometry">
            <mxPoint as="offset" />
          </mxGeometry>
        </mxCell>
        <mxCell id="679AgeHTdPnnJc1YT7qO-13" value="Select Seat" style="rhombus;whiteSpace=wrap;html=1;rounded=1;" vertex="1" parent="1">
          <mxGeometry x="227" y="290" width="80" height="80" as="geometry" />
        </mxCell>
        <mxCell id="679AgeHTdPnnJc1YT7qO-17" value="" style="group" vertex="1" connectable="0" parent="1">
          <mxGeometry x="437" y="1040" width="33" height="33" as="geometry" />
        </mxCell>
        <mxCell id="679AgeHTdPnnJc1YT7qO-16" value="" style="ellipse;whiteSpace=wrap;html=1;aspect=fixed;" vertex="1" parent="679AgeHTdPnnJc1YT7qO-17">
          <mxGeometry width="33" height="33" as="geometry" />
        </mxCell>
        <mxCell id="679AgeHTdPnnJc1YT7qO-15" value="" style="ellipse;shape=doubleEllipse;whiteSpace=wrap;html=1;aspect=fixed;fillColor=#000000;" vertex="1" parent="679AgeHTdPnnJc1YT7qO-17">
          <mxGeometry x="4" y="4" width="25" height="25" as="geometry" />
        </mxCell>
        <mxCell id="679AgeHTdPnnJc1YT7qO-64" style="edgeStyle=orthogonalEdgeStyle;rounded=0;orthogonalLoop=1;jettySize=auto;html=1;" edge="1" parent="1" source="679AgeHTdPnnJc1YT7qO-67" target="679AgeHTdPnnJc1YT7qO-63">
          <mxGeometry relative="1" as="geometry">
            <mxPoint x="267" y="585" as="sourcePoint" />
          </mxGeometry>
        </mxCell>
        <mxCell id="679AgeHTdPnnJc1YT7qO-37" style="edgeStyle=orthogonalEdgeStyle;rounded=0;orthogonalLoop=1;jettySize=auto;html=1;endArrow=none;endFill=0;" edge="1" parent="1" source="679AgeHTdPnnJc1YT7qO-32">
          <mxGeometry relative="1" as="geometry">
            <mxPoint x="127" y="750" as="targetPoint" />
          </mxGeometry>
        </mxCell>
        <mxCell id="679AgeHTdPnnJc1YT7qO-38" value="NO" style="edgeLabel;html=1;align=center;verticalAlign=middle;resizable=0;points=[];" vertex="1" connectable="0" parent="679AgeHTdPnnJc1YT7qO-37">
          <mxGeometry x="-0.0149" y="-4" relative="1" as="geometry">
            <mxPoint y="2" as="offset" />
          </mxGeometry>
        </mxCell>
        <mxCell id="679AgeHTdPnnJc1YT7qO-42" style="edgeStyle=orthogonalEdgeStyle;rounded=0;orthogonalLoop=1;jettySize=auto;html=1;" edge="1" parent="1" source="679AgeHTdPnnJc1YT7qO-32" target="679AgeHTdPnnJc1YT7qO-40">
          <mxGeometry relative="1" as="geometry" />
        </mxCell>
        <mxCell id="679AgeHTdPnnJc1YT7qO-43" value="YES" style="edgeLabel;html=1;align=center;verticalAlign=middle;resizable=0;points=[];" vertex="1" connectable="0" parent="679AgeHTdPnnJc1YT7qO-42">
          <mxGeometry x="-0.36" y="-1" relative="1" as="geometry">
            <mxPoint as="offset" />
          </mxGeometry>
        </mxCell>
        <mxCell id="679AgeHTdPnnJc1YT7qO-32" value="Make Payment" style="rhombus;whiteSpace=wrap;html=1;rounded=1;" vertex="1" parent="1">
          <mxGeometry x="227" y="710" width="80" height="80" as="geometry" />
        </mxCell>
        <mxCell id="679AgeHTdPnnJc1YT7qO-45" value="" style="edgeStyle=orthogonalEdgeStyle;rounded=0;orthogonalLoop=1;jettySize=auto;html=1;" edge="1" parent="1" source="679AgeHTdPnnJc1YT7qO-40" target="679AgeHTdPnnJc1YT7qO-44">
          <mxGeometry relative="1" as="geometry" />
        </mxCell>
        <mxCell id="679AgeHTdPnnJc1YT7qO-40" value="Get Receipt and Ticket" style="rounded=1;whiteSpace=wrap;html=1;" vertex="1" parent="1">
          <mxGeometry x="207" y="850" width="120" height="60" as="geometry" />
        </mxCell>
        <mxCell id="679AgeHTdPnnJc1YT7qO-46" style="edgeStyle=orthogonalEdgeStyle;rounded=0;orthogonalLoop=1;jettySize=auto;html=1;endArrow=none;endFill=0;" edge="1" parent="1" source="679AgeHTdPnnJc1YT7qO-44">
          <mxGeometry relative="1" as="geometry">
            <mxPoint x="127" y="990" as="targetPoint" />
            <Array as="points">
              <mxPoint x="127" y="970" />
            </Array>
          </mxGeometry>
        </mxCell>
        <mxCell id="679AgeHTdPnnJc1YT7qO-48" value="NO" style="edgeLabel;html=1;align=center;verticalAlign=middle;resizable=0;points=[];" vertex="1" connectable="0" parent="679AgeHTdPnnJc1YT7qO-46">
          <mxGeometry x="-0.1841" y="1" relative="1" as="geometry">
            <mxPoint x="-10" y="-1" as="offset" />
          </mxGeometry>
        </mxCell>
        <mxCell id="679AgeHTdPnnJc1YT7qO-74" style="edgeStyle=orthogonalEdgeStyle;rounded=0;orthogonalLoop=1;jettySize=auto;html=1;" edge="1" parent="1" source="679AgeHTdPnnJc1YT7qO-44" target="679AgeHTdPnnJc1YT7qO-73">
          <mxGeometry relative="1" as="geometry" />
        </mxCell>
        <mxCell id="679AgeHTdPnnJc1YT7qO-76" value="YES" style="edgeLabel;html=1;align=center;verticalAlign=middle;resizable=0;points=[];" vertex="1" connectable="0" parent="679AgeHTdPnnJc1YT7qO-74">
          <mxGeometry x="-0.1462" relative="1" as="geometry">
            <mxPoint as="offset" />
          </mxGeometry>
        </mxCell>
        <mxCell id="679AgeHTdPnnJc1YT7qO-44" value="Cancel &lt;br&gt;Flight?" style="rhombus;whiteSpace=wrap;html=1;rounded=1;" vertex="1" parent="1">
          <mxGeometry x="227" y="930" width="80" height="80" as="geometry" />
        </mxCell>
        <mxCell id="679AgeHTdPnnJc1YT7qO-51" style="edgeStyle=orthogonalEdgeStyle;rounded=0;orthogonalLoop=1;jettySize=auto;html=1;" edge="1" parent="1" source="679AgeHTdPnnJc1YT7qO-49" target="679AgeHTdPnnJc1YT7qO-67">
          <mxGeometry relative="1" as="geometry">
            <mxPoint x="267" y="505" as="targetPoint" />
          </mxGeometry>
        </mxCell>
        <mxCell id="679AgeHTdPnnJc1YT7qO-49" value="Input Passenger Information" style="rounded=1;whiteSpace=wrap;html=1;" vertex="1" parent="1">
          <mxGeometry x="207" y="410" width="120" height="60" as="geometry" />
        </mxCell>
        <mxCell id="679AgeHTdPnnJc1YT7qO-60" value="" style="edgeStyle=orthogonalEdgeStyle;rounded=0;orthogonalLoop=1;jettySize=auto;html=1;" edge="1" parent="1" source="679AgeHTdPnnJc1YT7qO-54">
          <mxGeometry relative="1" as="geometry">
            <mxPoint x="422" y="472" as="targetPoint" />
          </mxGeometry>
        </mxCell>
        <mxCell id="679AgeHTdPnnJc1YT7qO-78" value="YES" style="edgeLabel;html=1;align=center;verticalAlign=middle;resizable=0;points=[];" vertex="1" connectable="0" parent="679AgeHTdPnnJc1YT7qO-60">
          <mxGeometry x="-0.1367" y="1" relative="1" as="geometry">
            <mxPoint as="offset" />
          </mxGeometry>
        </mxCell>
        <mxCell id="679AgeHTdPnnJc1YT7qO-83" value="" style="edgeStyle=orthogonalEdgeStyle;rounded=0;orthogonalLoop=1;jettySize=auto;html=1;" edge="1" parent="1" source="679AgeHTdPnnJc1YT7qO-54" target="679AgeHTdPnnJc1YT7qO-82">
          <mxGeometry relative="1" as="geometry" />
        </mxCell>
        <mxCell id="679AgeHTdPnnJc1YT7qO-84" value="NO" style="edgeLabel;html=1;align=center;verticalAlign=middle;resizable=0;points=[];" vertex="1" connectable="0" parent="679AgeHTdPnnJc1YT7qO-83">
          <mxGeometry x="-0.0232" y="1" relative="1" as="geometry">
            <mxPoint as="offset" />
          </mxGeometry>
        </mxCell>
        <mxCell id="679AgeHTdPnnJc1YT7qO-86" style="edgeStyle=orthogonalEdgeStyle;rounded=0;orthogonalLoop=1;jettySize=auto;html=1;entryX=1;entryY=0.5;entryDx=0;entryDy=0;" edge="1" parent="1" source="679AgeHTdPnnJc1YT7qO-54" target="679AgeHTdPnnJc1YT7qO-10">
          <mxGeometry relative="1" as="geometry">
            <mxPoint x="526" y="290" as="sourcePoint" />
            <Array as="points">
              <mxPoint x="423" y="320" />
              <mxPoint x="345" y="320" />
              <mxPoint x="345" y="218" />
            </Array>
          </mxGeometry>
        </mxCell>
        <mxCell id="679AgeHTdPnnJc1YT7qO-88" value="" style="edgeStyle=orthogonalEdgeStyle;rounded=0;orthogonalLoop=1;jettySize=auto;html=1;" edge="1" parent="1" source="679AgeHTdPnnJc1YT7qO-54" target="679AgeHTdPnnJc1YT7qO-87">
          <mxGeometry relative="1" as="geometry">
            <Array as="points">
              <mxPoint x="422" y="352" />
            </Array>
          </mxGeometry>
        </mxCell>
        <mxCell id="679AgeHTdPnnJc1YT7qO-54" value="Already Registered?" style="rhombus;whiteSpace=wrap;html=1;rounded=1;" vertex="1" parent="1">
          <mxGeometry x="382" y="210" width="80" height="80" as="geometry" />
        </mxCell>
        <mxCell id="679AgeHTdPnnJc1YT7qO-59" value="Receive Promotions, annual free companion voucher" style="whiteSpace=wrap;html=1;rounded=1;" vertex="1" parent="1">
          <mxGeometry x="363" y="472" width="120" height="60" as="geometry" />
        </mxCell>
        <mxCell id="679AgeHTdPnnJc1YT7qO-66" style="edgeStyle=orthogonalEdgeStyle;rounded=0;orthogonalLoop=1;jettySize=auto;html=1;exitX=0.5;exitY=1;exitDx=0;exitDy=0;entryX=0.5;entryY=0;entryDx=0;entryDy=0;" edge="1" parent="1" source="679AgeHTdPnnJc1YT7qO-63" target="679AgeHTdPnnJc1YT7qO-32">
          <mxGeometry relative="1" as="geometry" />
        </mxCell>
        <mxCell id="679AgeHTdPnnJc1YT7qO-69" value="NO" style="edgeLabel;html=1;align=center;verticalAlign=middle;resizable=0;points=[];" vertex="1" connectable="0" parent="679AgeHTdPnnJc1YT7qO-66">
          <mxGeometry x="-0.3204" relative="1" as="geometry">
            <mxPoint as="offset" />
          </mxGeometry>
        </mxCell>
        <mxCell id="679AgeHTdPnnJc1YT7qO-68" style="edgeStyle=orthogonalEdgeStyle;rounded=0;orthogonalLoop=1;jettySize=auto;html=1;entryX=1;entryY=0.5;entryDx=0;entryDy=0;exitX=1;exitY=0.5;exitDx=0;exitDy=0;" edge="1" parent="1" source="679AgeHTdPnnJc1YT7qO-63" target="679AgeHTdPnnJc1YT7qO-40">
          <mxGeometry relative="1" as="geometry">
            <Array as="points">
              <mxPoint x="347" y="630" />
              <mxPoint x="347" y="900" />
            </Array>
          </mxGeometry>
        </mxCell>
        <mxCell id="679AgeHTdPnnJc1YT7qO-70" value="YES" style="edgeLabel;html=1;align=center;verticalAlign=middle;resizable=0;points=[];" vertex="1" connectable="0" parent="679AgeHTdPnnJc1YT7qO-68">
          <mxGeometry x="-0.2893" y="1" relative="1" as="geometry">
            <mxPoint as="offset" />
          </mxGeometry>
        </mxCell>
        <mxCell id="679AgeHTdPnnJc1YT7qO-63" value="Have Voucher?" style="rhombus;whiteSpace=wrap;html=1;rounded=1;" vertex="1" parent="1">
          <mxGeometry x="227" y="590" width="80" height="80" as="geometry" />
        </mxCell>
        <mxCell id="679AgeHTdPnnJc1YT7qO-67" value="Select Insurance Option" style="rounded=1;whiteSpace=wrap;html=1;" vertex="1" parent="1">
          <mxGeometry x="207" y="510" width="120" height="60" as="geometry" />
        </mxCell>
        <mxCell id="679AgeHTdPnnJc1YT7qO-75" style="edgeStyle=orthogonalEdgeStyle;rounded=0;orthogonalLoop=1;jettySize=auto;html=1;entryX=0.5;entryY=0;entryDx=0;entryDy=0;" edge="1" parent="1" source="679AgeHTdPnnJc1YT7qO-73" target="679AgeHTdPnnJc1YT7qO-16">
          <mxGeometry relative="1" as="geometry" />
        </mxCell>
        <mxCell id="679AgeHTdPnnJc1YT7qO-73" value="Refund Flight" style="rounded=1;whiteSpace=wrap;html=1;" vertex="1" parent="1">
          <mxGeometry x="393.5" y="940" width="120" height="60" as="geometry" />
        </mxCell>
        <mxCell id="679AgeHTdPnnJc1YT7qO-82" value="Add Info" style="whiteSpace=wrap;html=1;rounded=1;" vertex="1" parent="1">
          <mxGeometry x="522" y="220" width="120" height="60" as="geometry" />
        </mxCell>
        <mxCell id="679AgeHTdPnnJc1YT7qO-89" style="edgeStyle=orthogonalEdgeStyle;rounded=0;orthogonalLoop=1;jettySize=auto;html=1;entryX=1;entryY=0.5;entryDx=0;entryDy=0;" edge="1" parent="1" source="679AgeHTdPnnJc1YT7qO-87">
          <mxGeometry relative="1" as="geometry">
            <mxPoint x="482.0000000000002" y="502" as="targetPoint" />
            <Array as="points">
              <mxPoint x="506" y="502" />
            </Array>
          </mxGeometry>
        </mxCell>
        <mxCell id="679AgeHTdPnnJc1YT7qO-90" value="NO" style="edgeLabel;html=1;align=center;verticalAlign=middle;resizable=0;points=[];" vertex="1" connectable="0" parent="679AgeHTdPnnJc1YT7qO-89">
          <mxGeometry x="-0.2967" y="-3" relative="1" as="geometry">
            <mxPoint x="3" y="-4" as="offset" />
          </mxGeometry>
        </mxCell>
        <mxCell id="679AgeHTdPnnJc1YT7qO-93" value="" style="edgeStyle=orthogonalEdgeStyle;rounded=0;orthogonalLoop=1;jettySize=auto;html=1;" edge="1" parent="1" source="679AgeHTdPnnJc1YT7qO-87" target="679AgeHTdPnnJc1YT7qO-92">
          <mxGeometry relative="1" as="geometry" />
        </mxCell>
        <mxCell id="679AgeHTdPnnJc1YT7qO-94" value="YES" style="edgeLabel;html=1;align=center;verticalAlign=middle;resizable=0;points=[];" vertex="1" connectable="0" parent="679AgeHTdPnnJc1YT7qO-93">
          <mxGeometry x="-0.0636" y="-2" relative="1" as="geometry">
            <mxPoint y="-2" as="offset" />
          </mxGeometry>
        </mxCell>
        <mxCell id="679AgeHTdPnnJc1YT7qO-87" value="Apply for Card?" style="rhombus;whiteSpace=wrap;html=1;rounded=1;" vertex="1" parent="1">
          <mxGeometry x="466" y="312" width="80" height="80" as="geometry" />
        </mxCell>
        <mxCell id="679AgeHTdPnnJc1YT7qO-92" value="Sign up for Card through Bank" style="whiteSpace=wrap;html=1;rounded=1;" vertex="1" parent="1">
          <mxGeometry x="593" y="322" width="120" height="60" as="geometry" />
        </mxCell>
      </root>
    </mxGraphModel>
  </diagram>
</mxfile>
